HIERARCHY
ROOT Hips
{
  OFFSET 222.193 91.1173 162.92
  CHANNELS 6 Xposition Yposition Zposition Zrotation Xrotation Yrotation
  JOINT ToSpine
  {
    OFFSET -2.69724 7.43032 -0.144315
    CHANNELS 3 Zrotation Xrotation Yrotation
    JOINT Spine
    {
      OFFSET -0.0310711 10.7595 1.96963
      CHANNELS 3 Zrotation Xrotation Yrotation
      JOINT Spine1
      {
        OFFSET 13.1342 3.43533 0.764692
        CHANNELS 3 Zrotation Xrotation Yrotation
        JOINT Neck
        {
          OFFSET 29.8703 7.82586 -0.130764
          CHANNELS 3 Zrotation Xrotation Yrotation
          JOINT Head
          {
            OFFSET 9.52751 0.295786 -0.907742
            CHANNELS 3 Zrotation Xrotation Yrotation
            End Site
            {
              OFFSET 16.4037 0.713936 2.7358
            }
          }
        }
        JOINT LeftShoulder
        {
          OFFSET 27.5574 4.95586 2.47156
          CHANNELS 3 Zrotation Xrotation Yrotation
          JOINT LeftArm
          {
            OFFSET 1.20734 -0.998971 20.1238
            CHANNELS 3 Zrotation Xrotation Yrotation
            JOINT LeftForeArm
            {
              OFFSET 26.8049 -0.0536703 -0.155908
              CHANNELS 3 Zrotation Xrotation Yrotation
              JOINT LeftHand
              {
                OFFSET 26.6817 0 0.320147
                CHANNELS 3 Zrotation Xrotation Yrotation
                End Site
                {
                  OFFSET 18.6119 0 0.382219
                }
              }
            }
          }
        }
        JOINT RightShoulder
        {
          OFFSET 27.5927 4.71444 -2.65209
          CHANNELS 3 Zrotation Xrotation Yrotation
          JOINT RightArm
          {
            OFFSET 2.83739 -1.17114 -18.7564
            CHANNELS 3 Zrotation Xrotation Yrotation
            JOINT RightForeArm
            {
              OFFSET 28.839 -0.0548439 1.22491
              CHANNELS 3 Zrotation Xrotation Yrotation
              JOINT RightHand
              {
                OFFSET 26.5114 0 -0.101894
                CHANNELS 3 Zrotation Xrotation Yrotation
                End Site
                {
                  OFFSET 18.2168 0 0
                }
              }
            }
          }
        }
      }
    }
  }
  JOINT LeftUpLeg
  {
    OFFSET -4.76168 -1.9167 -10.2353
    CHANNELS 3 Zrotation Xrotation Yrotation
    JOINT LeftLeg
    {
      OFFSET 2.55951 -42.0585 -8.02213
      CHANNELS 3 Zrotation Xrotation Yrotation
      JOINT LeftFoot
      {
        OFFSET 3.16357 -42.5282 -3.95426
        CHANNELS 3 Zrotation Xrotation Yrotation
        JOINT LeftToeBase
        {
          OFFSET 0.346054 -6.02161 12.8035
          CHANNELS 3 Zrotation Xrotation Yrotation
          End Site
          {
            OFFSET 0.134235 -1.35082 5.13018
          }
        }
      }
    }
  }
  JOINT RightUpLeg
  {
    OFFSET -4.94151 -1.41743 10.6446
    CHANNELS 3 Zrotation Xrotation Yrotation
    JOINT RightLeg
    {
      OFFSET -2.56294 -42.0364 -7.94377
      CHANNELS 3 Zrotation Xrotation Yrotation
      JOINT RightFoot
      {
        OFFSET -3.0952 -42.555 -4.02241
        CHANNELS 3 Zrotation Xrotation Yrotation
        JOINT RightToeBase
        {
          OFFSET -0.0828122 -6.13587 12.8035
          CHANNELS 3 Zrotation Xrotation Yrotation
          End Site
          {
            OFFSET -0.131328 -1.35082 5.13018
          }
        }
      }
    }
  }
}
MOTION
Frames:	16
Frame Time:	0.0333333
-13.2807 94.691 -70.3683 -64.2419 -19.1974 -171.99 -70.1915 0 88.8779 88.9668 69.4864 -0.166446 3.17869 17.9251 4.49946 -154.109 14.2372 178.146 -148.037 52.331 -178.018 -0.0118288 -15.0361 -32.3766 -90.6423 45.0912 -69.8205 11.5857 10.8666 -46.9627 0.420957 0.000575453 0.35866 -2.0837 5.91691 49.4674 -69.2538 -20.7836 83.5805 8.64419 -10.1083 41.0422 0.58676 0.000331119 0.0646653 -52.8101 24.0068 111.151 -0.546308 31.7861 9.03365 -0.977709 7.28997 0.66209 2.35426 -6.51284 5.00451 -34.1542 -17.2816 58.4811 0.626733 40.2836 -8.11903 -6.73789 -9.42563 1.20124 3.03797 -2.91293 -19.6926 
-10.9989 94.5163 -68.4599 -63.6457 -23.1019 -169.138 -70.1915 0 88.8779 90.7028 69.9597 -0.977035 3.08271 18.3652 4.72367 -154.232 12.4175 178.786 -147.998 50.4135 -178.04 -0.0500119 -15.1714 -32.5581 -89.8392 44.8908 -70.0882 10.9735 10.4876 -46.391 0.420957 0.000575453 0.35866 -2.01811 5.89533 48.5558 -71.8947 -21.8329 82.4681 9.64569 -11.5306 40.5026 0.58676 0.000331119 0.0646653 -50.295 24.8494 115.264 -0.215907 32.8599 9.62165 -3.15245 5.69311 0.913135 2.28117 -6.23513 4.47385 -35.3524 -19.6762 55.7257 0.438982 39.0079 -9.04723 -5.92273 -7.39977 1.10849 2.82265 -3.10924 -18.1694 
-8.68948 94.5827 -66.3856 -63.1001 -26.8919 -166.788 -70.1915 0 88.8779 92.7023 70.6767 -2.25828 2.92177 19.1844 4.50078 -154.303 10.6937 179.762 -148.606 48.7655 -177.135 -0.0328991 -15.0945 -32.5561 -89.9494 44.7201 -69.8027 11.2019 10.9025 -45.8985 0.420957 0.000575453 0.35866 -2.02493 5.97878 48.2032 -73.8416 -22.1661 81.2141 8.85625 -10.8151 39.8475 0.58676 0.000331119 0.0646653 -48.2294 24.8969 119.978 0.219816 33.3269 12.8371 -2.85729 1.46587 0.429111 1.33596 -3.75842 2.43756 -37.1451 -22.1066 53.6348 0.563307 37.2092 -8.99901 -4.52108 -6.0932 0.966019 2.86536 -2.17073 -18.2357 
-6.44971 94.8844 -64.312 -62.3274 -30.5762 -164.576 -70.1915 0 88.8779 93.7977 71.5031 -2.99393 2.74342 20.1779 4.08778 -153.257 9.49301 -179.513 -148.216 47.5695 -176.123 0.0570549 -14.7164 -32.407 -89.553 44.6644 -70.0242 11.0699 11.0853 -45.0899 0.420957 0.000575453 0.35866 -2.05035 6.14804 47.6902 -76.2945 -22.883 79.5694 8.46507 -10.4357 39.56 0.58676 0.000331119 0.0646653 -45.7493 23.3572 120.107 0.0651848 34.0883 11.9204 -0.699512 -0.210281 -0.017563 0.651504 -3.45047 5.66944 -38.8448 -22.2223 58.7687 3.05756 33.3713 -13.8179 -3.03913 -5.34602 0.813305 2.88554 -4.83549 -19.2033 
-4.12362 94.6287 -62.0117 -61.8704 -34.1584 -162.082 -70.1915 0 88.8779 96.3042 72.2464 -5.21742 2.27503 20.948 4.44337 -151.664 8.25632 -179.977 -146.111 45.9979 -176.737 0.210421 -14.0694 -32.0902 -90.2202 44.7206 -69.2582 11.5233 11.9002 -44.2622 0.420957 0.000575453 0.35866 -2.02068 6.10161 47.4787 -77.9118 -23.163 77.8696 7.78069 -9.42067 40.03 0.58676 0.000331119 0.0646653 -42.393 21.8347 116.073 -0.224476 38.8475 11.1209 -0.164227 -5.77479 -0.531031 -0.283423 -0.640404 2.96541 -39.7616 -21.2398 66.4785 4.27993 31.5842 -20.8521 -3.6791 -7.26076 0.954921 2.59434 -5.90234 -17.0078 
-1.84494 94.3735 -59.437 -60.8482 -38.8157 -159.233 -70.1915 0 88.8779 96.5868 72.6131 -5.26522 2.30281 21.3165 4.57997 -150.333 7.88692 -178.221 -146.626 45.8367 -174.543 0.135585 -14.3446 -32.485 -92.1545 43.7879 -66.8879 11.8299 12.5063 -43.6331 0.420957 0.000575453 0.35866 -1.99071 6.04074 47.3357 -78.5606 -23.0516 76.7608 8.40596 -10.4435 39.3546 0.58676 0.000331119 0.0646653 -39.7127 18.1599 110.698 -0.855605 41.9727 7.92038 1.13981 -8.25103 -0.805596 -0.316333 -2.51193 8.32139 -41.3208 -21.0217 72.2842 4.27286 30.6048 -24.3211 -5.99225 -10.0438 1.1818 2.43283 -9.08316 -16.055 
0.35959 94.2182 -56.8013 -59.811 -44.0148 -156.908 -70.1915 0 88.8779 96.2654 72.8025 -5.25981 3.04932 21.7291 3.82312 -149.094 7.44424 -178.281 -145.752 45.2475 -174.631 0.158699 -14.2757 -32.2767 -92.7287 42.9684 -65.8936 10.3579 11.1462 -43.0218 0.420957 0.000575453 0.35866 -1.90221 5.83149 47.0566 -78.9611 -23.5462 75.7272 8.71957 -10.7229 39.6472 0.58676 0.000331119 0.0646653 -39.1985 14.8808 109.511 -1.26925 43.9699 6.08977 1.63857 -11.3894 -1.04039 -0.552765 -1.45488 6.52873 -43.7283 -21.3745 75.4682 2.79699 30.2309 -22.4048 -8.13444 -14.8395 1.30702 2.0969 -8.97213 -12.0334 
2.54159 94.1828 -54.289 -57.1545 -48.3874 -153.756 -70.1915 0 88.8779 93.7293 73.2404 -3.15907 3.19196 22.255 3.41146 -148.375 7.71672 -177.708 -146.675 45.6583 -173.612 0.239153 -13.8927 -32.3626 -92.4814 41.9881 -65.6535 10.7108 11.6833 -42.6686 0.420957 0.000575453 0.35866 -1.85219 5.91643 45.8003 -79.6024 -25.1957 74.2141 9.89937 -12.0462 40.0004 0.58676 0.000331119 0.0646653 -38.7003 11.2324 108.547 -1.67256 44.3852 3.62557 2.3596 -13.8458 -1.20869 -1.20661 -0.614167 7.57393 -44.2439 -20.0217 79.4854 -0.263463 30.849 -13.7318 -10.434 -15.2012 1.30072 2.31163 -10.6836 -14.7097 
4.43967 93.9085 -51.8785 -53.4155 -52.4925 -149.069 -70.1915 0 88.8779 90.1401 73.2592 0.815973 4.03131 22.5974 2.01632 -147.838 8.21858 -177.5 -146.158 46.1766 -173.112 0.32715 -13.4691 -32.5092 -93.4068 40.2628 -64.6548 11.2012 12.0498 -43.0979 0.420957 0.000575453 0.35866 -1.86963 6.1913 44.691 -80.0151 -26.938 73.6701 10.3546 -12.9194 39.3399 0.58676 0.000331119 0.0646653 -37.3622 7.74266 106.246 -1.82447 46.2026 3.80312 4.01493 -15.6084 -1.30026 -1.07252 -0.102431 5.58012 -43.836 -16.3288 86.7299 -0.879761 34.5681 -8.11105 -8.89028 -14.8589 1.30656 2.61809 -11.9507 -20.1451 
6.07261 93.7058 -49.6765 -48.4383 -57.682 -142.624 -70.1915 0 88.8779 90.7872 72.999 -0.62816 4.10595 22.3396 1.91191 -147.636 8.78553 -178.583 -145.318 46.6638 -173.93 0.38574 -13.2249 -32.3329 -94.2331 38.6694 -64.354 12.2463 12.8432 -43.9036 0.420957 0.000575453 0.35866 -1.87595 5.8999 46.2678 -78.3632 -25.9933 73.4354 9.51391 -12.2488 38.3976 0.58676 0.000331119 0.0646653 -37.306 3.79747 102.732 -2.12172 47.0934 2.47537 5.47716 -16.4525 -1.31429 -0.64122 -1.18114 6.23767 -43.9188 -12.9612 91.0105 0.686013 39.8319 -7.7084 -8.58367 -14.8153 1.30666 2.25199 -11.9617 -13.8063 
7.64212 93.7404 -47.5625 -40.4557 -62.3299 -133.577 -70.1915 0 88.8779 90.3782 72.6951 -1.34037 4.38951 21.8905 2.17803 -147.981 9.74908 -178.724 -145.034 47.6442 -174.081 0.302569 -13.5573 -32.6748 -94.943 37.1168 -64.5303 12.8615 13.0458 -44.9007 0.420957 0.000575453 0.35866 -1.89195 6.1556 45.2119 -77.9459 -27.7339 73.1805 9.84033 -13.1084 37.5025 0.58676 0.000331119 0.0646653 -37.9682 0.0533605 100.111 -2.21436 46.5866 1.55177 6.55563 -17.5415 -1.32107 -0.847024 0.00964438 4.18747 -42.8736 -10.3065 91.0445 1.44171 44.5999 -4.6765 -8.47194 -13.6946 1.30193 2.26928 -14.1983 -14.1426 
9.1425 94.0121 -45.4078 -27.7721 -65.7728 -119.673 -70.1915 0 88.8779 88.6655 72.3172 -0.186734 4.74968 21.4255 2.21389 -148.685 11.0606 -179.34 -145.452 49.0607 -174.341 0.251774 -13.8099 -32.5242 -94.6851 36.2866 -66.7304 12.8229 12.9643 -44.9936 0.420957 0.000575453 0.35866 -1.85685 6.14646 44.7119 -77.7674 -29.0557 72.4737 9.31024 -12.777 36.6566 0.58676 0.000331119 0.0646653 -38.7658 -2.64953 98.1977 -2.48745 45.3458 -1.29103 7.58194 -17.7358 -1.29617 -0.893802 0.0883448 4.22361 -40.6093 -7.60367 89.6945 1.70789 47.8581 -4.79219 -8.78045 -12.0872 1.30254 2.25824 -17.0975 -13.4113 
10.6203 94.5172 -43.0749 -11.294 -68.1721 -101.525 -70.1915 0 88.8779 89.2803 71.5014 -1.18507 4.80781 20.4471 2.53025 -147.753 11.9276 179.187 -143.58 49.7644 -175.374 0.202113 -14.0227 -32.6036 -91.2192 35.3188 -70.3664 13.4937 12.9957 -46.4233 0.420957 0.000575453 0.35866 -1.86196 6.19902 44.535 -76.8933 -30.3239 72.2909 7.68479 -11.1775 35.0076 0.58676 0.000331119 0.0646653 -41.1383 -4.76572 96.0348 -2.80636 42.878 -5.86076 6.84986 -17.8449 -1.31934 -1.40618 -0.156904 7.34852 -38.7679 -5.17685 87.4637 1.70786 49.2446 -5.60296 -7.79186 -10.6743 1.26425 2.24356 -17.5348 -11.0758 
12.104 95.136 -40.3992 7.9376 -68.084 -80.7388 -70.1915 0 88.8779 87.9979 70.4321 0.0523386 5.19264 19.3094 2.40971 -147.096 13.0993 178.389 -143.172 50.9926 -175.432 0.186948 -14.1347 -32.3443 -88.4269 34.6844 -74.4046 14.8968 13.8506 -47.5588 0.420957 0.000575453 0.35866 -1.80394 5.97753 44.716 -76.7077 -31.2531 71.0384 7.88819 -11.8099 34.2498 0.58676 0.000331119 0.0646653 -44.0792 -6.96773 93.3295 -2.86276 39.9017 -8.87108 9.16482 -17.0213 -1.2515 -1.61476 0.163947 7.52439 -36.9566 -3.51692 85.1346 1.49121 47.6524 -5.79422 -8.17416 -9.15546 1.2679 2.29649 -19.1133 -9.69122 
13.8357 95.668 -37.4573 23.9724 -65.5442 -62.9653 -70.1915 0 88.8779 84.4855 69.4564 3.99297 6.22813 18.2775 2.55896 -146.37 14.3469 177.471 -142.713 52.293 -175.628 0.024073 -14.8285 -32.5993 -85.2503 33.6456 -78.2953 16.0701 14.2882 -48.9373 0.420957 0.000575453 0.35866 -1.73074 5.7129 44.8837 -76.7277 -31.9229 69.4291 8.19058 -12.649 33.4588 0.58676 0.000331119 0.0646653 -47.5453 -9.35892 88.6152 -2.63436 36.1269 -9.79395 10.4662 -16.2967 -1.23197 -1.93349 0.807574 7.40337 -34.486 -2.11969 83.643 1.66608 45.351 -3.26587 -6.04545 -8.36575 1.14112 2.26517 -18.3633 -14.8473 
15.6413 95.7396 -34.4937 34.6019 -62.52 -51.2522 -70.1915 0 88.8779 85.1658 68.8698 3.17592 5.59875 17.5991 2.89879 -145.817 15.5325 176.48 -142.109 53.5383 -175.861 0.0708382 -14.6645 -32.3495 -82.2702 33.1358 -82.218 17.1297 14.5601 -50.3065 0.420957 0.000575453 0.35866 -1.7374 5.7289 44.9101 -76.8982 -32.7696 67.5568 7.4039 -11.7958 32.5938 0.58676 0.000331119 0.0646653 -50.4597 -10.3908 87.9002 -1.98371 34.9039 -13.2562 10.3428 -17.0168 -1.22555 -2.6708 2.46656 6.77871 -32.1197 -0.964697 83.9491 1.54781 42.0034 -2.01651 -5.80685 -7.12799 1.09342 2.26512 -18.3551 -15.5176 
